<?xml version="1.0" encoding="UTF-8"?>
<svg width="200px" height="200px" viewBox="0 0 200 200" version="1.1" xmlns="http://www.w3.org/2000/svg" xmlns:xlink="http://www.w3.org/1999/xlink">
    <!-- Generator: Sketch 42 (36781) - http://www.bohemiancoding.com/sketch -->
    <title>Forget_Password_04_Alert_correct@1x</title>
    <desc>Created with Sketch.</desc>
    <defs></defs>
    <g id="Symbols" stroke="none" stroke-width="1" fill="none" fill-rule="evenodd">
        <g id="Forget_Password_04_Alert_correct" fill="#1EB9AF">
            <polygon id="check" points="142.244733 61 90.7730956 111.318843 58.7504052 80.0151507 45 93.4541085 90.7730956 138.211019 156 74.4437116"></polygon>
            <path d="M100,200 C44.771525,200 0,155.228475 0,100 C0,44.771525 44.771525,0 100,0 C155.228475,0 200,44.771525 200,100 C200,155.228475 155.228475,200 100,200 Z M100,191 C150.257912,191 191,150.257912 191,100 C191,49.7420878 150.257912,9 100,9 C49.7420878,9 9,49.7420878 9,100 C9,150.257912 49.7420878,191 100,191 Z" id="Combined-Shape"></path>
        </g>
    </g>
</svg>