<?xml version="1.0" encoding="UTF-8"?>
<svg width="200px" height="200px" viewBox="0 0 200 200" version="1.1" xmlns="http://www.w3.org/2000/svg" xmlns:xlink="http://www.w3.org/1999/xlink">
    <!-- Generator: Sketch 42 (36781) - http://www.bohemiancoding.com/sketch -->
    <title>Forget_Password_04_Alert_error@1x</title>
    <desc>Created with Sketch.</desc>
    <defs></defs>
    <g id="Symbols" stroke="none" stroke-width="1" fill="none" fill-rule="evenodd">
        <g id="Forget_Password_04_Alert_error" fill="#D0011B">
            <g id="01_16_Registe_Finish" transform="translate(51.000000, 51.000000)">
                <polygon id="Page-1" points="88.1465775 0 48.5246909 39.6218866 8.90280433 0 1.42108547e-14 8.90280433 39.6218866 48.5215428 1.42108547e-14 88.1465775 8.90280433 97.0493818 48.5246909 57.4274952 88.1465775 97.0493818 97.0493818 88.1465775 57.4274952 48.5215428 97.0493818 8.90280433"></polygon>
            </g>
            <path d="M100,200 C44.771525,200 0,155.228475 0,100 C0,44.771525 44.771525,0 100,0 C155.228475,0 200,44.771525 200,100 C200,155.228475 155.228475,200 100,200 Z M100,191 C150.257912,191 191,150.257912 191,100 C191,49.7420878 150.257912,9 100,9 C49.7420878,9 9,49.7420878 9,100 C9,150.257912 49.7420878,191 100,191 Z" id="Combined-Shape"></path>
        </g>
    </g>
</svg>